<?xml version="1.0" standalone="no"?>
<!DOCTYPE svg PUBLIC "-//W3C//DTD SVG 20010904//EN"
 "http://www.w3.org/TR/2001/REC-SVG-20010904/DTD/svg10.dtd">
<svg version="1.0" xmlns="http://www.w3.org/2000/svg"
 width="1024.000000pt" height="1024.000000pt" viewBox="0 0 1024.000000 1024.000000"
 preserveAspectRatio="xMidYMid meet">
<metadata>
Created by potrace 1.14, written by Peter Selinger 2001-2017
</metadata>
<g transform="translate(0.000000,1024.000000) scale(0.100000,-0.100000)"
fill="#000000" stroke="none">
<path d="M4775 9468 c-27 -15 -35 -28 -35 -59 0 -49 76 -94 225 -134 l79 -22
-139 -12 c-77 -7 -151 -14 -165 -16 -14 -2 -47 -6 -75 -10 -66 -9 -80 -11
-280 -40 -399 -60 -507 -67 -673 -43 -83 12 -85 12 -103 -11 -30 -37 -24 -69
20 -111 27 -26 63 -46 111 -62 l72 -24 -93 -53 c-194 -110 -324 -213 -671
-532 -402 -369 -387 -353 -354 -404 23 -34 73 -33 175 5 45 16 81 27 81 24 0
-2 -8 -21 -19 -42 -49 -97 -123 -339 -222 -720 -43 -168 -50 -207 -41 -227 21
-46 92 -45 136 1 l24 27 7 -69 c13 -143 37 -294 71 -446 34 -155 87 -348 104
-378 6 -11 -9 -32 -59 -81 -73 -72 -119 -153 -148 -260 -25 -95 -23 -289 6
-394 46 -174 156 -345 275 -429 121 -87 213 -122 358 -135 l72 -6 26 -101 c75
-289 180 -496 352 -693 62 -72 194 -186 271 -236 l27 -17 0 -126 0 -125 -48
-51 c-57 -61 -112 -167 -120 -231 -5 -45 -9 -49 -116 -139 -110 -93 -276 -258
-350 -348 -21 -27 -42 -48 -47 -48 -14 0 -907 -359 -1395 -560 -218 -91 -484
-209 -533 -237 -108 -63 -192 -171 -235 -301 -26 -79 -89 -414 -132 -697 -38
-252 -92 -625 -98 -680 -6 -49 -22 -148 -31 -192 l-5 -23 1676 0 1677 0 -7 33
c-9 45 -21 132 -51 362 -15 110 -37 277 -50 370 -49 348 -101 761 -110 875 -4
46 -8 87 -10 90 -1 3 -5 34 -9 70 -3 36 -9 90 -12 120 l-5 55 44 -75 c24 -41
64 -113 90 -160 92 -172 116 -173 252 -10 37 44 70 80 74 80 4 0 38 -73 76
-162 38 -90 80 -185 94 -213 14 -27 24 -53 23 -56 0 -4 -11 -67 -22 -140 -12
-74 -32 -192 -45 -264 -13 -71 -28 -159 -34 -195 -13 -80 -15 -91 -46 -265
-13 -77 -27 -158 -30 -180 -9 -61 -44 -276 -51 -308 l-6 -27 493 0 492 0 -6
53 c-4 28 -13 95 -21 147 -9 52 -18 113 -21 135 -5 34 -36 215 -51 295 -2 14
-11 68 -19 120 -8 52 -24 145 -35 205 -11 61 -23 128 -26 150 -3 22 -14 93
-25 159 l-19 118 34 72 c19 39 58 128 86 198 28 69 57 134 64 143 11 16 20 9
85 -66 93 -107 107 -119 142 -119 36 0 54 25 153 205 43 77 79 142 82 144 5 5
1 -39 -16 -204 -6 -49 -12 -117 -15 -150 -3 -33 -10 -91 -15 -130 -5 -38 -16
-135 -25 -215 -8 -80 -24 -208 -35 -285 -11 -77 -27 -196 -35 -265 -8 -69 -19
-150 -25 -180 -5 -30 -12 -73 -15 -95 -3 -22 -14 -92 -24 -155 -11 -63 -22
-142 -26 -175 -3 -33 -8 -70 -11 -82 l-4 -23 1676 0 1676 0 -5 23 c-3 12 -11
58 -17 102 -6 44 -13 94 -15 110 -3 17 -9 66 -15 110 -6 44 -12 91 -15 105 -6
37 -32 218 -50 355 -8 66 -20 143 -25 170 -5 28 -12 68 -15 90 -25 179 -91
504 -114 566 -27 72 -93 166 -154 218 -27 23 -90 61 -140 85 -135 65 -1466
607 -1760 717 -118 44 -119 45 -170 109 -74 94 -248 266 -349 343 -85 66 -87
69 -98 125 -18 84 -55 155 -116 221 l-54 59 0 125 0 125 80 57 c281 196 480
506 579 898 11 43 21 81 24 83 2 3 40 9 83 14 182 22 307 83 425 206 147 156
219 346 219 581 0 186 -53 327 -166 438 l-61 61 38 115 c45 138 104 400 128
564 17 116 18 120 43 123 14 2 34 12 44 24 17 18 19 39 19 192 0 94 -4 209 -8
256 -17 184 -76 407 -145 545 l-35 70 34 -28 c114 -93 134 -101 177 -71 37 26
29 69 -27 144 -128 170 -343 338 -512 400 -35 13 -68 27 -73 31 -17 15 110 -2
207 -28 90 -25 101 -26 125 -12 44 24 42 68 -5 109 -46 41 -137 84 -223 106
-67 17 -253 25 -300 12 -23 -7 -28 -2 -60 60 -76 147 -217 302 -366 403 -99
66 -270 148 -404 192 -118 39 -392 87 -646 112 -89 9 -215 27 -280 40 -65 14
-119 25 -119 25 0 0 -9 -6 -20 -12z m1285 -1789 c170 -27 320 -149 419 -338
53 -101 80 -188 135 -421 26 -107 67 -262 93 -345 43 -141 46 -156 45 -260 -1
-114 -10 -292 -17 -335 -3 -14 -9 -74 -15 -133 -11 -106 -58 -399 -120 -743
-29 -160 -89 -410 -125 -519 -30 -91 -131 -289 -189 -370 -105 -146 -244 -272
-503 -456 -144 -102 -284 -174 -418 -215 -82 -25 -104 -28 -260 -28 -204 -1
-263 13 -450 103 -220 107 -521 329 -650 479 -200 231 -295 448 -381 867 -13
66 -27 131 -29 145 -2 14 -25 136 -49 272 -25 136 -52 302 -61 370 -8 68 -17
137 -20 153 -2 17 -7 66 -10 110 -4 44 -9 89 -11 100 -2 11 -4 82 -5 158 l0
137 52 173 c28 94 66 228 83 297 l32 125 54 13 c456 106 1048 311 1374 474 32
16 60 27 63 25 2 -3 -36 -38 -84 -79 -101 -85 -116 -107 -101 -149 23 -67 66
-64 219 14 171 86 410 246 529 353 14 12 41 24 60 27 74 8 278 6 340 -4z
m-2804 -1714 c41 -24 42 -27 53 -97 6 -40 15 -95 20 -123 5 -27 8 -51 7 -52
-1 -2 -29 23 -62 55 -43 42 -72 62 -106 71 -87 25 -178 -6 -178 -60 0 -17 4
-19 23 -12 12 4 49 8 83 8 62 -1 99 -18 150 -69 l20 -21 -47 -47 c-85 -85
-104 -214 -45 -306 31 -50 121 -112 207 -143 l58 -21 11 -57 c6 -31 16 -71 20
-90 5 -19 7 -37 5 -39 -3 -3 -37 0 -77 7 -162 26 -324 147 -393 294 -98 207
-100 459 -4 607 72 112 166 147 255 95z m3815 14 c42 -14 102 -70 134 -126 53
-89 73 -240 51 -373 -47 -287 -237 -498 -466 -517 -38 -3 -70 -2 -70 2 0 4 9
47 20 95 l21 87 42 14 c64 20 158 78 198 122 65 69 76 175 28 272 -13 26 -39
60 -56 74 -18 14 -33 31 -33 36 0 18 66 74 106 91 33 14 46 14 91 3 58 -13 59
-13 65 15 4 26 -55 56 -112 56 -62 -1 -121 -30 -181 -90 -28 -28 -48 -43 -45
-33 2 10 8 50 12 88 3 39 12 84 19 101 19 45 78 87 131 93 6 0 26 -4 45 -10z
m-3701 -489 c0 -5 -4 -10 -10 -10 -5 0 -10 5 -10 10 0 6 5 10 10 10 6 0 10 -4
10 -10z m2473 -2239 c-9 -14 -43 -59 -75 -100 -147 -187 -318 -344 -558 -511
-97 -68 -105 -72 -126 -59 -243 151 -518 386 -648 554 -101 130 -95 112 -102
316 -7 177 -7 181 12 171 10 -6 30 -22 44 -37 33 -36 229 -191 305 -242 129
-86 223 -120 369 -130 145 -10 296 39 446 144 88 63 289 224 320 258 l25 27 3
-183 c2 -157 0 -185 -15 -208z m197 -121 c9 -91 6 -378 -5 -545 -3 -44 -7
-116 -10 -160 -11 -174 -14 -184 -75 -285 -112 -186 -180 -307 -180 -318 0
-24 -19 -11 -61 41 -82 99 -304 342 -421 461 -65 66 -118 122 -118 126 0 3 39
30 87 60 211 132 387 280 529 443 126 145 157 190 192 284 l27 73 13 -43 c7
-23 16 -85 22 -137z m-1801 35 c44 -70 206 -258 304 -352 111 -106 255 -215
391 -298 53 -32 96 -61 96 -65 0 -5 -21 -25 -46 -46 -51 -43 -262 -271 -426
-461 -59 -68 -110 -124 -115 -125 -4 0 -37 49 -72 109 -35 59 -92 155 -126
213 l-62 105 -7 100 c-3 55 -9 147 -14 205 -13 192 -9 639 7 694 l15 50 15
-45 c9 -25 27 -63 40 -84z"/>
<path d="M3999 6675 c-151 -24 -257 -72 -330 -147 -66 -68 -48 -105 43 -87 80
17 360 22 494 10 139 -13 296 -41 412 -73 58 -15 76 -17 88 -8 42 35 -12 147
-98 205 -133 88 -408 133 -609 100z"/>
<path d="M5935 6679 c-165 -16 -329 -74 -394 -140 -37 -38 -70 -102 -71 -136
0 -38 28 -43 120 -22 316 74 637 98 860 64 79 -11 97 -12 109 -1 21 21 5 51
-52 100 -60 51 -131 88 -207 110 -60 16 -230 38 -270 34 -14 -2 -56 -6 -95 -9z"/>
<path d="M4186 6291 c-5 -8 13 -11 62 -11 38 0 104 -9 147 -20 43 -11 80 -19
82 -17 1 2 -25 13 -60 25 -73 26 -221 40 -231 23z"/>
<path d="M5825 6283 c-39 -9 -116 -35 -113 -39 2 -2 26 4 53 12 28 8 95 19
150 23 l100 8 -85 0 c-47 1 -94 -1 -105 -4z"/>
<path d="M4093 6250 c-103 -19 -182 -59 -258 -131 -73 -70 -113 -131 -136
-207 -12 -42 -12 -43 21 -77 19 -19 37 -35 42 -35 4 0 20 24 34 53 59 116 136
193 238 237 l49 20 -27 -35 c-46 -59 -67 -120 -73 -208 -10 -148 40 -255 147
-310 48 -25 64 -28 125 -25 109 6 186 54 237 151 20 36 23 57 23 147 0 95 -3
111 -27 158 -15 29 -24 52 -19 52 13 0 99 -87 127 -129 14 -23 29 -41 32 -41
2 0 2 30 -2 68 -15 150 -97 246 -250 294 -70 22 -210 31 -283 18z m107 -240
c41 -41 13 -110 -45 -110 -24 0 -39 7 -54 26 -27 34 -26 50 4 79 29 30 68 32
95 5z"/>
<path d="M5885 6246 c-136 -27 -230 -85 -277 -172 -25 -46 -49 -141 -47 -188
0 -20 1 -19 17 4 27 39 92 108 134 141 l38 30 -33 -68 c-26 -55 -32 -83 -35
-150 -5 -102 14 -164 69 -226 54 -62 110 -88 192 -88 111 -1 191 55 246 171
23 48 26 67 25 155 0 104 -11 140 -66 218 -41 58 61 9 143 -70 51 -48 119
-158 119 -192 0 -19 17 -12 54 23 44 41 45 64 5 144 -58 116 -172 217 -289
253 -81 25 -210 31 -295 15z m-5 -236 c24 -24 26 -57 4 -88 -31 -45 -114 -14
-114 43 0 14 9 34 20 45 11 11 31 20 45 20 14 0 34 -9 45 -20z"/>
<path d="M4900 4994 c0 -38 89 -120 118 -109 6 2 12 -1 12 -7 0 -6 2 -9 5 -6
8 8 -23 62 -52 90 -28 27 -83 48 -83 32z m51 -57 c-10 -9 -11 -8 -5 6 3 10 9
15 12 12 3 -3 0 -11 -7 -18z"/>
<path d="M5255 4981 c-22 -10 -46 -29 -54 -42 -12 -22 -11 -21 17 4 26 25 33
27 53 17 23 -11 23 -10 5 4 -20 16 -20 16 0 17 10 1 23 1 27 0 5 -1 6 3 2 9
-8 12 -2 13 -50 -9z"/>
<path d="M5230 4940 c-1 -3 -3 -15 -4 -27 l-3 -22 29 21 c16 11 27 23 24 26
-3 2 -12 0 -20 -7 -11 -9 -15 -9 -19 1 -3 7 -6 11 -7 8z"/>
<path d="M5181 4898 c-1 -10 6 -18 14 -18 8 0 15 5 15 11 0 5 -4 8 -9 5 -5 -4
-12 0 -14 6 -3 8 -6 6 -6 -4z"/>
<path d="M4600 4545 c-20 -25 -3 -45 62 -74 147 -67 383 -101 559 -82 120 13
234 42 309 80 66 32 83 56 56 77 -17 12 -23 12 -42 -1 -42 -27 -157 -65 -242
-80 -201 -35 -485 -3 -635 71 -57 28 -52 28 -67 9z"/>
</g>
</svg>
